<?xml version="1.0" encoding="iso-8859-1"?>
<!-- Generator: Adobe Illustrator 19.0.0, SVG Export Plug-In . SVG Version: 6.00 Build 0)  -->
<svg version="1.1" id="Capa_1" xmlns="http://www.w3.org/2000/svg" xmlns:xlink="http://www.w3.org/1999/xlink" x="0px" y="0px"
	 viewBox="0 0 490 490" style="enable-background:new 0 0 490 490;" xml:space="preserve">
<g>
	<g>
		<g>
			<path d="M136.5,131.1c0,5.4,4.3,10.1,10.1,10.1h197.2c5.4,0,10.1-4.3,10.1-10.1s-4.3-10.1-10.1-10.1H146.2
				C140.8,120.9,136.5,125.6,136.5,131.1z"/>
			<path d="M343.8,184.3H146.2c-5.4,0-10.1,4.3-10.1,10.1s4.3,10.1,10.1,10.1h197.2c5.4,0,10.1-4.3,10.1-10.1
				S349.2,184.3,343.8,184.3z"/>
			<path d="M343.8,247.7H146.2c-5.4,0-10.1,4.3-10.1,10.1c0,5.4,4.3,10.1,10.1,10.1h197.2c5.4,0,10.1-4.3,10.1-10.1
				S349.2,247.7,343.8,247.7z"/>
			<path d="M343.8,310.7H146.2c-5.4,0-10.1,4.3-10.1,10.1c0,5.4,4.3,10.1,10.1,10.1h197.2c5.4,0,10.1-4.3,10.1-10.1
				C353.5,315.4,349.2,310.7,343.8,310.7z"/>
			<path d="M343.8,374.1H146.2c-5.4,0-10.1,4.3-10.1,10.1c0,5.4,4.3,10.1,10.1,10.1h197.2c5.4,0,10.1-4.3,10.1-10.1
				C353.5,378.8,349.2,374.1,343.8,374.1z"/>
			<polygon points="350,40.1 360.9,71.2 385,71.2 385,447.2 105,447.2 105,71.2 129.1,71.2 140,40.1 73.1,40.1 73.1,490 416.9,490 
				416.9,40.1 			"/>
			<path d="M324.7,27.6h-52.1C272.6,12.4,260.2,0,245,0c-15.2,0-27.6,12.4-27.6,27.6h-52.1l-15.2,44.3h189.8L324.7,27.6z"/>
		</g>
	</g>
</g>
<g>
</g>
<g>
</g>
<g>
</g>
<g>
</g>
<g>
</g>
<g>
</g>
<g>
</g>
<g>
</g>
<g>
</g>
<g>
</g>
<g>
</g>
<g>
</g>
<g>
</g>
<g>
</g>
<g>
</g>
</svg>
